<?xml version="1.0" encoding="UTF-8"?>
<!DOCTYPE svg PUBLIC "-//W3C//DTD SVG 1.1//EN" "http://www.w3.org/Graphics/SVG/1.1/DTD/svg11.dtd">
<!-- Creator: CorelDRAW 2021 (64-Bit) -->
<svg xmlns="http://www.w3.org/2000/svg" xml:space="preserve" width="8.5in" height="11in" version="1.1" style="shape-rendering:geometricPrecision; text-rendering:geometricPrecision; image-rendering:optimizeQuality; fill-rule:evenodd; clip-rule:evenodd"
viewBox="0 0 8500 11000"
 xmlns:xlink="http://www.w3.org/1999/xlink"
 xmlns:xodm="http://www.corel.com/coreldraw/odm/2003">
 <defs>
  <style type="text/css">
   <![CDATA[
    .fil0 {fill:#242E51}
   ]]>
  </style>
 </defs>
 <g id="Layer_x0020_1">
  <metadata id="CorelCorpID_0Corel-Layer"/>
  <path class="fil0" d="M4195.57 5236.99c112.15,-34.13 197.04,25.16 224.96,107.41 36.81,108.4 -25.76,211.96 -108.28,237.49 -252.97,78.27 -340.65,-276.76 -116.69,-344.91zm-731.97 2.56c226.37,-79.83 332.28,245.97 134.6,336.17 -224.42,102.4 -386.96,-247.17 -134.6,-336.17zm1472.18 -7.69c236.19,-52.78 313.72,290.75 99.09,351.23 -253.07,71.31 -336.28,-298.23 -99.09,-351.23zm-1284.15 1259.46c377.96,85.54 605.21,160.3 1055.65,40.83 612.22,-162.37 1132.94,-698.09 970.25,-1360.43 -153.31,-624.17 -844.63,-951.19 -1443.87,-944.32 -624.67,7.15 -1292.02,364.7 -1418.28,969.05 -114.94,550.12 237.3,871.12 246.06,903.25 -14.24,142.65 -64.11,264.17 -127.48,365.06 -42.44,67.57 -67.48,86.67 -107.98,141.38 -47.89,64.7 -36.68,107.19 5.35,157.09 277.51,56.94 662.89,-156.27 820.3,-271.91z"/>
 </g>
</svg>
