<svg width="50" height="58" viewBox="0 0 22 26" fill="none" xmlns="http://www.w3.org/2000/svg">
<g clip-path="url(#clip0_17_3186)">
<path d="M10.9998 0.0270996C8.38484 0.0270996 3.56299 0.707765 1.10739 2.14439C-2.12564 13.6765 2.27127 21.5186 10.9998 25.9696C19.7285 21.5186 24.1254 13.6377 20.8923 2.14446C18.4342 0.707765 13.6148 0.0270996 10.9998 0.0270996Z" fill="#9C824A" stroke="#9C824A" stroke-width="0.0429653" stroke-miterlimit="282"/>
<path d="M10.9998 0.76857C8.4307 0.76857 5.53805 1.09918 1.74958 2.65491C-1.07061 12.7212 2.20113 20.7894 10.9998 25.1868C19.7984 20.7894 23.0677 12.7212 20.2475 2.65491C16.459 1.09918 13.5688 0.76857 10.9998 0.76857Z" fill="#023474" stroke="#023474" stroke-width="0.0429653" stroke-miterlimit="282"/>
<path d="M10.9877 0.75885C8.43069 0.75885 5.68533 1.14046 3.20797 2.0837C0.638894 12.3907 2.53435 19.9167 11.0022 25.1796L10.9877 0.75885ZM11.0022 25.1796C19.47 19.9167 21.3631 12.3907 18.7939 2.0837C16.3166 1.14046 13.5737 0.75885 11.0167 0.75885L11.0022 25.1796Z" fill="white" stroke="white" stroke-width="0.0429653" stroke-miterlimit="282"/>
<path d="M11.0022 0.756454C8.43069 0.756454 5.8278 1.14778 3.71265 1.88916C1.0518 12.6921 3.18865 19.9871 11.0046 24.9729L11.0022 0.756454Z" fill="#EF0107" stroke="#EF0107" stroke-width="0.0429653" stroke-miterlimit="282"/>
<path d="M11.0071 0.756454C13.5785 0.756454 16.1815 1.14778 18.299 1.88916C20.9598 12.6921 18.8229 19.9871 11.0047 24.9729L11.0071 0.756454Z" fill="#DB0007" stroke="#DB0007" stroke-width="0.0429653" stroke-miterlimit="282"/>
<path d="M7.67979 17.0579C6.54496 17.8408 5.64193 18.1227 4.59399 18.4023L3.9614 17.4129C4.92484 16.9219 5.92203 16.2388 6.9265 15.2495C7.011 16.2096 7.4552 16.8902 7.67979 17.0579Z" fill="white"/>
<path d="M7.52521 17.0167C6.44835 17.7604 4.94886 18.2783 3.23213 18.5311L2.88202 17.9963C4.35246 17.4419 5.77222 16.6155 6.8733 15.4536C7.03992 16.1974 7.29342 16.6909 7.52521 17.0167Z" fill="#9C824A"/>
<path d="M4.6568 12.4733C4.6568 12.889 4.32363 13.2245 3.91072 13.2245C3.49782 13.2245 3.1622 12.889 3.1622 12.4733C3.1622 12.0576 3.49782 11.7222 3.91072 11.7222C4.32363 11.7222 4.6568 12.0576 4.6568 12.4733Z" fill="white"/>
<path d="M4.57706 10.9929V13.8273H6.79602C6.94087 12.8768 7.47692 11.868 8.69141 10.9929H4.57706Z" fill="white"/>
<path d="M4.66646 13.8273C4.17143 13.8346 3.76343 13.2098 3.75615 12.4271C3.75132 11.6443 4.14735 11.0026 4.64475 10.9929C4.64958 10.9929 4.65442 10.9929 4.66169 10.9929" fill="white"/>
<path d="M4.34287 12.4733C4.34287 12.7942 4.11108 13.0519 3.82614 13.0519C3.54121 13.0519 3.30942 12.7942 3.30942 12.4733C3.30942 12.1524 3.54121 11.8947 3.82614 11.8947C4.11108 11.8947 4.34287 12.1524 4.34287 12.4733Z" fill="#9C824A"/>
<path d="M4.63745 11.1412V13.6887H6.83954C7.01337 12.8428 7.44077 11.9434 8.50797 11.1412H4.63745Z" fill="#9C824A"/>
<path d="M4.71952 13.6887C4.25348 13.6985 3.872 13.1345 3.86479 12.432C3.85996 11.7295 4.23422 11.1509 4.7002 11.1412C4.70503 11.1412 4.70986 11.1412 4.71469 11.1412" fill="#9C824A"/>
<path d="M15.2131 14.4909C15.2131 16.8563 13.3105 18.7717 10.9611 18.7717C8.61419 18.7717 6.70914 16.8563 6.70914 14.4909C6.70914 12.1257 8.61419 10.2101 10.9611 10.2101C13.3105 10.2101 15.2131 12.1257 15.2131 14.4909Z" fill="white"/>
<path d="M14.9911 14.4909C14.9911 16.7323 13.1874 18.548 10.9612 18.548C8.73739 18.548 6.93372 16.7323 6.93372 14.4909C6.93372 12.2521 8.73739 10.4338 10.9612 10.4338C13.1874 10.4338 14.9911 12.2497 14.9911 14.4909Z" fill="#9C824A"/>
<path d="M14.3222 14.4909C14.3222 16.3603 12.8179 17.8748 10.9611 17.8748C9.10677 17.8748 7.60251 16.3603 7.60251 14.4909C7.60251 12.6216 9.10677 11.1071 10.9611 11.1071C12.8179 11.1071 14.3222 12.6216 14.3222 14.4909Z" fill="white"/>
<path d="M14.1001 14.4909C14.1001 16.2362 12.6948 17.6486 10.9611 17.6486C9.22991 17.6486 7.82465 16.2362 7.82465 14.4909C7.82465 12.7456 9.22991 11.3333 10.9611 11.3333C12.6948 11.3332 14.1001 12.7456 14.1001 14.4909Z" fill="#9C824A"/>
<path d="M12.2698 14.4909C12.2722 15.2178 11.6855 15.8085 10.9635 15.8109C10.2392 15.8109 9.6524 15.2203 9.6524 14.4934V14.4909C9.6524 13.7641 10.2368 13.1734 10.9611 13.1734C11.683 13.171 12.2697 13.7617 12.2697 14.4885C12.2698 14.4909 12.2698 14.4909 12.2698 14.4909Z" fill="white"/>
<path d="M12.1153 14.4909C12.1153 15.1328 11.6009 15.6529 10.9636 15.6529C10.3262 15.6529 9.80943 15.1352 9.80698 14.4934V14.491C9.80698 13.8493 10.3237 13.329 10.9611 13.329C11.5985 13.329 12.1153 13.8468 12.1153 14.4885V14.4909Z" fill="#9C824A"/>
<path d="M11.5551 14.4909C11.5551 14.8191 11.2895 15.0864 10.9612 15.0888C10.6352 15.0888 10.3696 14.8215 10.3696 14.4909C10.3696 14.1604 10.6352 13.8954 10.9612 13.893C11.2895 13.8929 11.5551 14.1604 11.5551 14.4909Z" fill="white"/>
<path d="M11.391 14.4909C11.391 14.7291 11.2002 14.9236 10.9612 14.9236C10.7246 14.9236 10.5314 14.7315 10.5314 14.4909C10.5314 14.2528 10.7246 14.0583 10.9612 14.0583C11.1977 14.0583 11.391 14.2503 11.391 14.4909Z" fill="#9C824A"/>
<path d="M11.403 11.2603H10.5096V13.3581H11.403V11.2603Z" fill="white"/>
<path d="M11.2653 10.9588H10.6497V13.6255H11.2653V10.9588Z" fill="#9C824A"/>
<path d="M13.4505 12.4441L13.9383 13.1976L12.1902 14.3403L11.7049 13.5866L13.4505 12.4441Z" fill="white"/>
<path d="M13.7766 12.3979L14.1122 12.9181L11.8908 14.3718L11.5551 13.8492L13.7766 12.3979Z" fill="#9C824A"/>
<path d="M9.70799 14.6611L10.1861 15.4195L8.42587 16.5426L7.94778 15.7817L9.70799 14.6611Z" fill="white"/>
<path d="M10.0074 14.6173L10.3382 15.1424L8.10234 16.5693L7.77148 16.0442L10.0074 14.6173Z" fill="#9C824A"/>
<path d="M11.403 15.6943H10.5096V17.792H11.403V15.6943Z" fill="white"/>
<path d="M11.2653 15.3953H10.6497V18.0595H11.2653V15.3953Z" fill="#9C824A"/>
<path d="M10.0895 15.4706C10.2103 15.5726 10.343 15.665 10.5097 15.7356L10.5048 17.6073C9.66214 17.4979 9.02472 17.0798 8.54181 16.4843L10.092 15.4706" fill="#EF0107"/>
<path d="M10.0895 15.4706C10.2103 15.5726 10.343 15.665 10.5097 15.7356L10.5048 17.6073C9.66214 17.4979 9.02472 17.0798 8.54181 16.4843L10.092 15.4706" stroke="#EF0107" stroke-width="0.0168773" stroke-miterlimit="282"/>
<path d="M11.8304 15.4779C11.7072 15.5776 11.5768 15.6724 11.4102 15.7404L11.4126 17.6122C12.2553 17.5029 12.8928 17.0848 13.3757 16.4892L11.828 15.478" fill="#DB0007"/>
<path d="M11.8304 15.4779C11.7072 15.5776 11.5768 15.6724 11.4102 15.7404L11.4126 17.6122C12.2553 17.5029 12.8928 17.0848 13.3757 16.4892L11.828 15.478" stroke="#DB0007" stroke-width="0.0168773" stroke-miterlimit="282"/>
<path d="M12.2529 14.6927L14.0976 14.469C14.1121 14.9333 14.001 15.3417 13.8441 15.7331L12.248 14.6927" fill="#DB0007"/>
<path d="M12.2554 14.6854C12.2626 14.6562 12.2602 14.6295 12.2723 14.5444L14.0929 14.3062C14.1001 14.3913 14.0953 14.4229 14.0929 14.4618L12.2554 14.6854Z" fill="white" stroke="white" stroke-width="0.0168773" stroke-miterlimit="282"/>
<path d="M14.95 13.1418H17.338C17.2631 13.4262 17.1907 13.7155 16.8478 13.8443C16.2997 14.0511 15.1625 14.2503 15.1625 14.2503C15.1407 13.9367 15.0707 13.5112 14.95 13.1418Z" fill="white"/>
<path d="M13.2864 10.9516L19.5256 10.9589L19.3059 13.2536L15.0442 13.4773C14.8148 12.4514 14.0397 11.4718 13.2864 10.9516Z" fill="white"/>
<path d="M13.5085 11.1144L21.4741 11.1217L21.1699 12.9911L14.9886 13.2974C14.7447 12.3688 14.187 11.6906 13.5085 11.1144Z" fill="#9C824A"/>
<path d="M14.95 13.1418H17.1496C17.0772 13.3946 17.0264 13.6255 16.7029 13.7398C16.1887 13.9245 15.1528 14.0704 15.1528 14.0704C15.1094 13.7666 15.0466 13.4578 14.95 13.1418Z" fill="#9C824A"/>
<path d="M12.5354 7.61883C12.5354 7.72096 12.5137 8.00051 12.5017 8.07827H13.738C13.663 7.74759 13.6292 7.28822 13.6196 6.93331C13.6196 6.95761 13.5979 6.22102 13.5979 6.22102C13.5979 6.16996 13.6196 6.0922 13.651 6.0679C13.6945 6.01683 13.738 6.01683 13.7911 6.01683C13.8442 5.99253 13.9408 5.99253 13.9528 6.19432L13.9843 6.95761C13.9963 7.31492 13.9963 7.79872 13.9528 8.07827H15.1432C15.1335 7.97614 15.0998 7.72089 15.0901 7.64553C15.2398 7.97614 15.5634 8.15356 15.9931 8.15356C16.2491 8.15356 16.4446 8.05383 16.5944 7.95177C16.5944 7.97607 16.6572 8.07827 16.6572 8.07827H18.8689C18.7723 7.74759 18.7095 7.28822 18.6758 6.93331L18.3642 4.4392L17.2269 4.23502C17.3236 4.56563 17.3888 5.04936 17.4298 5.37998L17.6036 6.98437C17.635 7.26392 17.6568 7.57024 17.6568 7.90078V7.92508L17.6133 7.82295C17.5264 7.61877 17.4853 7.36598 17.4515 6.9843L17.4104 6.47381C17.3453 5.65946 16.9058 5.30448 15.9375 5.30448C15.7782 5.30448 15.3701 5.32878 15.1215 5.4066L15.1866 6.32061L15.445 6.16989C15.66 6.04106 15.8193 5.99 16.0124 5.99C16.1646 5.99 16.2611 6.04113 16.3046 6.14319C16.1212 6.16989 15.9182 6.22095 15.6913 6.32061C15.3484 6.47374 15.1335 6.70462 15.037 6.95747V6.93317L15.0032 6.09206C14.9839 5.55726 14.6386 5.20235 14.1122 5.20235C13.878 5.20235 13.663 5.27771 13.4699 5.40653C13.4579 5.37977 13.4482 5.3554 13.4361 5.32871L13.3926 5.22658L12.405 5.17552C12.4485 5.3554 12.5137 5.86351 12.5234 6.041C12.4702 5.78814 12.3302 5.50859 12.0718 5.30441C11.869 5.17558 11.6106 5.10022 11.3427 5.10022C10.978 5.10022 10.6013 5.25334 10.3551 5.50859C10.0967 5.76138 9.96869 6.11876 9.95665 6.52473C9.8601 6.4226 9.73213 6.32294 9.58238 6.27195L9.13083 6.041H9.10913C9.00293 5.98986 8.99082 5.96556 8.99082 5.94126C9.00293 5.8902 9.10913 5.83914 9.24922 5.83914C9.44237 5.83914 9.71043 5.94126 9.92528 6.06769L9.94698 5.25334C9.7852 5.17552 9.56068 5.12692 9.23711 5.12692C9.06566 5.12692 8.74453 5.15122 8.46443 5.30434C8.38952 5.3554 8.32435 5.40647 8.26162 5.45753L8.27128 5.22651C8.01295 5.17791 7.73523 5.17791 7.39233 5.50852C7.38029 5.48176 7.35852 5.35533 7.33682 5.30434L6.27445 5.3554C6.34929 5.65932 6.36133 6.09199 6.33963 6.47367L6.31792 6.88204V6.9331C6.30581 7.13729 6.29622 7.36578 6.27445 7.56996C6.1875 7.28795 6.09334 6.90634 6.01605 6.60249L5.48973 4.21051L3.98786 4.439C3.99752 4.4633 4.01922 4.54112 4.03133 4.61642C4.04106 4.71855 4.04106 4.92273 3.90097 5.3554C3.65469 6.041 3.31179 7.08623 2.97862 7.82275C2.93515 7.92487 2.84827 8.078 2.84827 8.078H4.01929C4.04106 7.90051 4.1159 7.59426 4.19074 7.36571C4.35252 7.36571 4.77026 7.36571 4.96334 7.33894C5.00682 7.51883 5.05029 7.74731 5.0624 7.90044L5.08172 8.07793H7.42383C7.3707 7.69625 7.3924 7.18815 7.41179 6.9062C7.43349 6.57559 7.49867 6.3471 7.63876 6.22068C7.74496 6.09185 7.86327 6.06755 7.95022 6.06755C7.93818 6.52453 8.22794 6.72878 8.48627 6.85514L8.94741 7.08602C9.1092 7.18815 9.1092 7.21245 9.1092 7.26351C9.09954 7.33887 8.96912 7.36564 8.85087 7.36564C8.60458 7.36564 8.27135 7.21245 7.90675 6.80654L7.88504 7.87367C8.17481 8.0268 8.53941 8.10216 8.86298 8.10216C9.39903 8.10216 9.96882 7.84931 10.1186 7.36557C10.3866 7.8736 10.9129 8.10216 11.4297 8.10216C11.8907 8.10257 12.2336 7.95177 12.5354 7.61883ZM4.47084 6.57593C4.53601 6.39851 4.58908 6.24532 4.68569 5.96577C4.75087 6.24532 4.78223 6.42281 4.81367 6.55163C4.68569 6.57593 4.62051 6.57593 4.47084 6.57593ZM11.0432 6.29638C11.0432 5.94147 11.1712 5.78835 11.2993 5.78835C11.3427 5.78835 11.4393 5.76158 11.4827 5.94147C11.5044 6.01683 11.514 6.0679 11.514 6.0922C11.514 6.19432 11.461 6.22102 11.3958 6.22102V6.24532C11.3958 6.24532 11.2147 6.29638 11.0432 6.37414C11.0432 6.34745 11.0432 6.32315 11.0432 6.29638ZM12.2674 7.03537C12.0404 7.23716 11.8786 7.36598 11.6106 7.36598C11.3958 7.33922 11.2678 7.21279 11.1929 7.03537C11.4175 6.95761 12.2867 6.627 12.5354 6.52487C12.5354 6.72905 12.5451 6.95754 12.5451 6.95754V7.39028L12.2674 7.03537ZM16.2707 7.39035C16.068 7.39035 16.0244 7.23716 16.0148 7.1375C16.0244 7.03537 16.0558 6.88225 16.3793 6.78019C16.389 6.90661 16.401 7.00867 16.401 7.00867V7.11073C16.4107 7.18849 16.4107 7.26385 16.4203 7.33922C16.3794 7.36598 16.3263 7.36598 16.2707 7.39035Z" fill="#9C824A"/>
<path d="M9.76351 5.37996C9.65731 5.35566 9.49552 5.3046 9.23719 5.3046C9.03438 5.3046 8.76632 5.35566 8.56106 5.45779C8.32443 5.61091 8.15298 5.8127 8.14332 6.04365C8.12162 6.39856 8.30511 6.55168 8.5731 6.67811C8.75421 6.78024 8.92804 6.8823 9.03431 6.93336C9.17432 7.00872 9.3023 7.08648 9.29264 7.26397C9.2806 7.44146 9.11881 7.57029 8.85082 7.57029C8.62623 7.57029 8.30511 7.41716 8.07814 7.21291L8.06848 7.74771C8.26163 7.84984 8.5731 7.90083 8.86286 7.90083C9.35543 7.90083 9.9687 7.67235 9.97836 7.11078C9.99041 6.67811 9.68867 6.52492 9.50756 6.42526C9.32407 6.3475 9.14051 6.24544 9.05608 6.22107C8.96913 6.17001 8.79768 6.11901 8.80979 5.91476C8.82911 5.73734 9.03438 5.65951 9.24923 5.65951C9.43034 5.65951 9.61383 5.71057 9.75385 5.78833" fill="white"/>
<path d="M5.35209 4.43919L4.21243 4.59232C4.2342 4.74551 4.19073 5.04936 4.07241 5.40666C3.83824 6.09219 3.45187 7.23708 3.14999 7.9007H3.85994C3.90097 7.66982 3.9541 7.46803 4.06275 7.18848L5.11553 7.16172C5.15655 7.36591 5.23384 7.69652 5.2435 7.9007H6.19967C6.08136 7.61876 5.93168 7.03529 5.83514 6.62692L5.35209 4.43919ZM4.21243 6.75342L4.72916 5.25354L5.04069 6.72912" fill="white"/>
<path d="M8.07821 5.37997L8.05651 5.89047C7.88506 5.86378 7.67021 5.91477 7.49876 6.09226C7.34901 6.24539 7.25247 6.47394 7.23077 6.88231C7.209 7.21293 7.19934 7.5946 7.21866 7.90085H6.41455C6.46769 7.5946 6.48946 7.23962 6.49905 6.90668L6.52075 6.5007C6.54246 6.17009 6.54246 5.83948 6.48939 5.53323L7.19927 5.50893C7.2307 5.61106 7.2524 5.78848 7.24036 5.96591C7.55183 5.48203 7.85363 5.37997 8.07821 5.37997Z" fill="white"/>
<path d="M18.2048 4.59232L17.4732 4.4635C17.5481 4.79658 17.5698 5.02506 17.6133 5.35561L17.7848 6.95761C17.8185 7.28822 17.85 7.59454 17.8402 7.90078H18.6347C18.5574 7.59454 18.526 7.28822 18.4946 6.95761" fill="white"/>
<path d="M14.9283 7.90078C14.8872 7.59453 14.8655 7.28822 14.8534 6.95761L14.822 6.11896C14.8003 5.65952 14.542 5.40674 14.1121 5.40674C13.8779 5.40674 13.5978 5.4821 13.3612 5.78835C13.3516 5.71059 13.3177 5.5088 13.2743 5.40674L12.6321 5.37997C12.6851 5.68629 12.7069 5.99014 12.7165 6.32075L12.7286 6.95761C12.7383 7.28822 12.7286 7.59453 12.7069 7.90078H13.511C13.4699 7.59453 13.4482 7.28822 13.4361 6.95761L13.4143 6.24539C13.4047 5.99014 13.5978 5.81265 13.7911 5.81265C14.0156 5.81265 14.1242 5.96577 14.134 6.19432L14.1677 6.95761C14.1774 7.28822 14.1774 7.59453 14.1557 7.90078" fill="white"/>
<path d="M17.4418 7.90077C17.3453 7.64552 17.2921 7.33928 17.2704 7.00866L17.2268 6.50056C17.1833 5.8904 16.9275 5.48203 15.9375 5.48203C15.766 5.48203 15.5197 5.50879 15.317 5.55739L15.3484 6.01682C15.5511 5.8904 15.7564 5.78834 16.0148 5.78834C16.2828 5.78834 16.5073 5.91477 16.5291 6.29637C16.2707 6.32314 16.0341 6.37174 15.7661 6.50056C15.4667 6.62699 15.1552 6.88224 15.1866 7.28814C15.2179 7.74758 15.5632 7.95177 15.9931 7.95177C16.3262 7.95177 16.5508 7.79864 16.6788 7.64552C16.7005 7.74758 16.7343 7.82294 16.7657 7.90077H17.4418ZM16.2707 7.57016C16.034 7.57016 15.841 7.44133 15.8313 7.16179C15.8313 6.88224 16.0027 6.65375 16.5508 6.57592L16.5822 7.00866C16.5943 7.16179 16.5943 7.26391 16.616 7.39034C16.5388 7.4924 16.4108 7.54346 16.2707 7.57016Z" fill="white"/>
<path d="M11.9656 5.45772C11.7822 5.3289 11.5672 5.27783 11.3427 5.27783C10.8163 5.27783 10.1185 5.65951 10.1402 6.62698C10.1499 7.61882 10.9032 7.92506 11.4296 7.92506C11.8907 7.92506 12.1709 7.74757 12.3954 7.51909L12.2336 7.28814C12.1153 7.39026 11.9221 7.54339 11.6106 7.54339C11.2774 7.51909 11.0649 7.28814 10.9466 6.93322L12.405 6.39842C12.3616 5.91476 12.1902 5.63521 11.9656 5.45772ZM11.461 6.39849L10.8814 6.62698C10.8694 6.52492 10.8597 6.42279 10.8597 6.29637C10.8597 5.7105 11.1809 5.60844 11.2895 5.60844C11.461 5.58414 11.6106 5.6862 11.6661 5.89039C11.729 6.11894 11.7073 6.32313 11.461 6.39849Z" fill="white"/>
<path d="M8.02509 13.0251L8.51521 12.274L10.2585 13.4213L9.76835 14.1749L8.02509 13.0251Z" fill="white"/>
<path d="M7.86328 12.7674L8.20135 12.2472L10.4155 13.7081L10.0774 14.2284L7.86328 12.7674Z" fill="#9C824A"/>
<path d="M11.7459 15.4171L12.236 14.6635L13.9793 15.8133L13.4892 16.5669L11.7459 15.4171Z" fill="white"/>
<path d="M11.5841 15.1594L11.9221 14.6393L14.1363 16.1002L13.7983 16.618L11.5841 15.1594Z" fill="#9C824A"/>
</g>
<defs>
<clipPath id="clip0_17_3186">
<rect width="22" height="26" fill="white"/>
</clipPath>
</defs>
</svg>
