<svg width="5" height="13" viewBox="0 0 5 13" fill="none" xmlns="http://www.w3.org/2000/svg">
<path d="M2.51065 12.285C1.86932 12.285 1.31465 12.0553 0.846654 11.596C0.387321 11.128 0.157654 10.5733 0.157654 9.932C0.157654 9.27333 0.387321 8.71433 0.846654 8.255C1.31465 7.787 1.86932 7.553 2.51065 7.553C3.16932 7.553 3.72832 7.787 4.18765 8.255C4.64699 8.71433 4.87665 9.27333 4.87665 9.932C4.87665 10.5733 4.64699 11.128 4.18765 11.596C3.72832 12.0553 3.16932 12.285 2.51065 12.285ZM2.51065 4.732C1.86932 4.732 1.31465 4.50233 0.846654 4.043C0.387321 3.575 0.157654 3.02033 0.157654 2.379C0.157654 1.72033 0.387321 1.16133 0.846654 0.702001C1.31465 0.234 1.86932 0 2.51065 0C3.16932 0 3.72832 0.234 4.18765 0.702001C4.64699 1.16133 4.87665 1.72033 4.87665 2.379C4.87665 3.02033 4.64699 3.575 4.18765 4.043C3.72832 4.50233 3.16932 4.732 2.51065 4.732Z" fill="url(#paint0_linear_17_3162)"/>
<defs>
<linearGradient id="paint0_linear_17_3162" x1="0.157654" y1="0" x2="8.38211" y2="3.15923" gradientUnits="userSpaceOnUse">
<stop stop-color="#585858"/>
<stop offset="0.0001" stop-color="#C7C7C7"/>
<stop offset="1" stop-color="#AFAFAF"/>
</linearGradient>
</defs>
</svg>
