<svg width="26" height="26" viewBox="0 0 26 26" fill="none" xmlns="http://www.w3.org/2000/svg">
<g clip-path="url(#clip0_17_3237)">
<path fill-rule="evenodd" clip-rule="evenodd" d="M2.65957 1.29376C4.39518 2.04501 7.24376 1.95606 9.15439 0.534134C11.826 2.46443 14.3972 2.26627 16.8488 0.534134C18.4834 1.6992 20.9999 2.19664 23.3612 1.31821L24.4197 2.76855C21.6594 6.40619 22.6812 9.8833 25.5283 12.9433L24.3327 14.1387C24.6036 21.9844 18.4414 23.8576 14.9029 24.0521L13.0004 25.587L11.1121 24.0749C4.79491 23.537 1.45952 20.2505 1.66587 14.1588L0.436646 12.9342C2.83842 10.3724 4.64321 6.87177 1.55792 2.76776L2.65957 1.29376Z" fill="black" stroke="black" stroke-width="0.0113563"/>
<path fill-rule="evenodd" clip-rule="evenodd" d="M2.80318 14.0009H23.1303C23.6646 19.5478 20.0909 22.5438 14.6566 22.8383L11.2034 22.8469C6.00431 22.4784 2.1308 19.7715 2.80318 14.0009Z" fill="#004D98"/>
<path d="M14.4455 14.0676H11.5661V22.9311H14.4455V14.0676Z" fill="#A50044"/>
<path d="M8.71462 14.0676H5.83524V21.9891H8.71462V14.0676Z" fill="#A50044"/>
<path d="M8.71467 21.5833H6.8392V22.3992H8.71467V21.5833Z" fill="#A50044"/>
<path d="M20.1435 14.0676H17.2642V21.9891H20.1435V14.0676Z" fill="#A50044"/>
<path d="M19.1398 21.5833H17.2643V22.3992H19.1398V21.5833Z" fill="#A50044"/>
<path fill-rule="evenodd" clip-rule="evenodd" d="M12.9121 3.12664V10.9995L3.20885 11.0687L4.20901 7.27935L2.9632 2.74598L9.10452 1.96735L12.9121 3.12664Z" fill="white"/>
<path fill-rule="evenodd" clip-rule="evenodd" d="M13.0525 3.12664V10.9995L22.7558 11.0687L21.7556 7.27935L23.0014 2.74598L16.8601 1.96735L13.0525 3.12664Z" fill="#FFED02"/>
<path d="M10.0874 2.19162H7.3053V10.9507H10.0874V2.19162Z" fill="#DB0030"/>
<path d="M12.9121 8.20222V5.45877H4.25512V8.20222H12.9121Z" fill="#DB0030"/>
<path d="M14.9524 2.81258H13.9234V10.8937H14.9524V2.81258Z" fill="#DB0030"/>
<path d="M16.9056 2.23367H15.8767V10.9127H16.9056V2.23367Z" fill="#DB0030"/>
<path d="M18.8717 2.72289H17.8427V10.9309H18.8717V2.72289Z" fill="#DB0030"/>
<path d="M20.8194 3.02357H19.7904V10.9235H20.8194V3.02357Z" fill="#DB0030"/>
<path fill-rule="evenodd" clip-rule="evenodd" d="M9.13797 1.15785C7.34603 2.45303 4.51044 2.5893 2.88265 1.94172L2.23069 2.76938C5.02765 6.65023 3.42067 10.5546 1.20294 12.9458L2.2242 14.0116C1.80979 19.861 5.27146 23.244 11.357 23.5921L13.0064 24.9506L14.6525 23.5708C18.1964 23.5105 24.4105 21.5506 23.7409 14.0031L24.7676 12.9544C22.1631 10.1061 21.2655 6.20478 23.7821 2.76938L23.1702 1.94706C20.9434 2.6687 18.3959 2.2687 16.8629 1.17601C14.5636 2.80054 11.6436 2.96824 9.13797 1.15785ZM16.8835 2.26958C18.266 3.11606 19.7937 3.35692 22.4273 3.12928C21.1085 5.37932 20.9661 8.05971 22.1338 10.6476L3.85734 10.6369C4.84031 8.32449 5.06585 5.66354 3.52486 3.07801C5.42443 3.34997 7.28 3.28481 9.13039 2.29201C11.6402 3.74493 14.2223 3.77151 16.8835 2.26958ZM3.20863 14.0885H22.8074C23.3225 19.4365 19.8768 22.3246 14.6374 22.6086L11.3072 22.6171C6.29444 22.2618 2.56036 19.6522 3.20863 14.0885Z" fill="#EDBB00" stroke="#DEB405" stroke-width="0.0106509"/>
<path fill-rule="evenodd" clip-rule="evenodd" d="M3.50372 3.10617C5.04471 5.69169 4.81901 8.35259 3.83603 10.665L22.1121 10.6757C20.9443 8.08779 21.0873 5.40735 22.4061 3.15731C19.7724 3.38496 18.2451 3.14433 16.8626 2.29785C14.2014 3.79978 11.6186 3.77262 9.10871 2.3197C7.25832 3.3125 5.40329 3.37812 3.50372 3.10617Z" stroke="black" stroke-width="0.0454254"/>
<path fill-rule="evenodd" clip-rule="evenodd" d="M3.20845 14.0885H22.8069C23.322 19.4365 19.8764 22.325 14.6369 22.609L11.3076 22.6173C6.29482 22.262 2.56017 19.6521 3.20845 14.0885Z" stroke="black" stroke-width="0.0454254"/>
<path d="M12.9886 3.37657V10.6791" stroke="black" stroke-width="0.0454254"/>
<path d="M15.6914 18.2558C15.6915 18.6009 15.6226 18.9427 15.4887 19.2615C15.3548 19.5803 15.1586 19.8701 14.9111 20.1141C14.6637 20.3581 14.3699 20.5517 14.0466 20.6838C13.7233 20.8159 13.3768 20.8839 13.0268 20.8839C12.6769 20.8839 12.3304 20.8159 12.0071 20.6838C11.6837 20.5517 11.39 20.3581 11.1426 20.1141C10.8951 19.8701 10.6989 19.5803 10.565 19.2615C10.4311 18.9427 10.3622 18.6009 10.3623 18.2558C10.3622 17.9107 10.4311 17.569 10.565 17.2502C10.6989 16.9313 10.8951 16.6416 11.1426 16.3976C11.39 16.1535 11.6837 15.9599 12.0071 15.8279C12.3304 15.6958 12.6769 15.6278 13.0268 15.6278C13.3768 15.6278 13.7233 15.6958 14.0466 15.8279C14.3699 15.9599 14.6637 16.1535 14.9111 16.3976C15.1586 16.6416 15.3548 16.9313 15.4887 17.2502C15.6226 17.569 15.6915 17.9107 15.6914 18.2558Z" fill="#EDBB00" stroke="black" stroke-width="0.0456529"/>
<path d="M11.4901 16.1156C11.1791 17.2334 10.9862 18.3341 11.8834 18.8629C12.5104 19.2325 12.9343 18.4788 13.0517 18.1868" stroke="black" stroke-width="0.0397472"/>
<path d="M10.5614 19.3154C11.0867 19.2918 11.3608 19.2492 11.6977 18.7444" stroke="black" stroke-width="0.0397472"/>
<path d="M13.0294 18.2064C13.5565 17.8869 14.0253 18.0415 14.2431 18.8413C14.7561 18.6381 15.2505 19.0285 15.3794 19.4231" stroke="black" stroke-width="0.0397472"/>
<path d="M14.254 18.8413C13.8646 19.7684 12.8404 20.1976 11.4025 20.3389" stroke="black" stroke-width="0.0397472"/>
<path d="M13.0302 18.2444C12.7067 17.9523 12.209 17.618 12.9341 16.7591C12.6264 16.3747 12.5426 15.999 12.9448 15.6425" stroke="black" stroke-width="0.0397472"/>
<path d="M15.6794 18.413C15.2062 17.5881 14.1048 16.4451 12.9341 16.7486" stroke="black" stroke-width="0.0397472"/>
<path d="M9.30132 11.1166V11.1262H8.81723V12.0532V12.5786V13.6092H9.34031V12.5786H10.0865V12.0532H9.34031V11.6505H10.628V11.1166H9.30132Z" fill="black"/>
<path fill-rule="evenodd" clip-rule="evenodd" d="M13.2614 11.8944L13.7309 11.6526C13.4312 10.9992 12.2161 10.8134 11.8164 11.6526C11.4039 12.6536 11.8423 13.5836 12.6406 13.6743C13.1478 13.7471 13.5498 13.5022 13.7204 13.0672L13.2561 12.8049C13.1325 13.1087 12.661 13.3178 12.3015 12.81C12.1908 12.5831 12.1624 12.2339 12.2859 11.8944C12.5807 11.4949 13.0117 11.5381 13.2614 11.8944Z" fill="black" stroke="black" stroke-width="0.00227127"/>
<path fill-rule="evenodd" clip-rule="evenodd" d="M15.0563 11.123L15.0661 13.6284L16.449 13.623C16.899 13.5609 17.489 12.8345 16.7977 12.27C17.1632 11.9524 17.1174 11.273 16.3862 11.1283L15.0563 11.123ZM15.5881 11.6164H16.2768C16.5797 11.7023 16.4898 11.9895 16.2866 12.0382H15.5881V11.6164ZM15.5935 12.5273L16.318 12.5369C16.6764 12.6421 16.5954 13.0449 16.3288 13.1136L15.5989 13.1083L15.5935 12.5273Z" fill="black" stroke="black" stroke-width="0.0113563"/>
</g>
<defs>
<clipPath id="clip0_17_3237">
<rect width="26" height="26" fill="white"/>
</clipPath>
</defs>
</svg>
