<svg width="22" height="10" viewBox="0 0 22 10" fill="none" xmlns="http://www.w3.org/2000/svg">
<path d="M6.24609 7.62891V9H1.95117V7.62891H6.24609ZM2.51953 0.46875V9H0.761719V0.46875H2.51953ZM8.92969 2.66016V9H7.23633V2.66016H8.92969ZM7.13086 1.00781C7.13086 0.761719 7.2168 0.558594 7.38867 0.398438C7.56055 0.238281 7.79102 0.158203 8.08008 0.158203C8.36523 0.158203 8.59375 0.238281 8.76562 0.398438C8.94141 0.558594 9.0293 0.761719 9.0293 1.00781C9.0293 1.25391 8.94141 1.45703 8.76562 1.61719C8.59375 1.77734 8.36523 1.85742 8.08008 1.85742C7.79102 1.85742 7.56055 1.77734 7.38867 1.61719C7.2168 1.45703 7.13086 1.25391 7.13086 1.00781ZM12.4805 7.76953L13.8867 2.66016H15.6504L13.5117 9H12.4453L12.4805 7.76953ZM11.5137 2.66016L12.9258 7.77539L12.9551 9H11.8828L9.74414 2.66016H11.5137ZM19.2422 9.11719C18.75 9.11719 18.3086 9.03906 17.918 8.88281C17.5273 8.72266 17.1953 8.50195 16.9219 8.2207C16.6523 7.93945 16.4453 7.61328 16.3008 7.24219C16.1562 6.86719 16.084 6.46875 16.084 6.04688V5.8125C16.084 5.33203 16.1523 4.89258 16.2891 4.49414C16.4258 4.0957 16.6211 3.75 16.875 3.45703C17.1328 3.16406 17.4453 2.93945 17.8125 2.7832C18.1797 2.62305 18.5938 2.54297 19.0547 2.54297C19.5039 2.54297 19.9023 2.61719 20.25 2.76562C20.5977 2.91406 20.8887 3.125 21.123 3.39844C21.3613 3.67188 21.541 4 21.6621 4.38281C21.7832 4.76172 21.8438 5.18359 21.8438 5.64844V6.35156H16.8047V5.22656H20.1855V5.09766C20.1855 4.86328 20.1426 4.6543 20.0566 4.4707C19.9746 4.2832 19.8496 4.13477 19.6816 4.02539C19.5137 3.91602 19.2988 3.86133 19.0371 3.86133C18.8145 3.86133 18.623 3.91016 18.4629 4.00781C18.3027 4.10547 18.1719 4.24219 18.0703 4.41797C17.9727 4.59375 17.8984 4.80078 17.8477 5.03906C17.8008 5.27344 17.7773 5.53125 17.7773 5.8125V6.04688C17.7773 6.30078 17.8125 6.53516 17.8828 6.75C17.957 6.96484 18.0605 7.15039 18.1934 7.30664C18.3301 7.46289 18.4941 7.58398 18.6855 7.66992C18.8809 7.75586 19.1016 7.79883 19.3477 7.79883C19.6523 7.79883 19.9355 7.74023 20.1973 7.62305C20.4629 7.50195 20.6914 7.32031 20.8828 7.07812L21.7031 7.96875C21.5703 8.16016 21.3887 8.34375 21.1582 8.51953C20.9316 8.69531 20.6582 8.83984 20.3379 8.95312C20.0176 9.0625 19.6523 9.11719 19.2422 9.11719Z" fill="#959FA8"/>
</svg>
