<?xml version="1.0" encoding="UTF-8" standalone="no"?>
<!-- Created with Inkscape (http://www.inkscape.org/) -->
<svg
   xmlns:dc="http://purl.org/dc/elements/1.1/"
   xmlns:cc="http://creativecommons.org/ns#"
   xmlns:rdf="http://www.w3.org/1999/02/22-rdf-syntax-ns#"
   xmlns:svg="http://www.w3.org/2000/svg"
   xmlns="http://www.w3.org/2000/svg"
   xmlns:sodipodi="http://sodipodi.sourceforge.net/DTD/sodipodi-0.dtd"
   xmlns:inkscape="http://www.inkscape.org/namespaces/inkscape"
   width="306.5"
   height="120.5"
   id="svg3483"
   sodipodi:version="0.32"
   inkscape:version="0.46"
   sodipodi:docname="Setanta Sports.svg"
   inkscape:output_extension="org.inkscape.output.svg.inkscape"
   version="1.0">
  <defs
     id="defs3485">
    <inkscape:perspective
       sodipodi:type="inkscape:persp3d"
       inkscape:vp_x="0 : 526.18109 : 1"
       inkscape:vp_y="0 : 1000 : 0"
       inkscape:vp_z="744.09448 : 526.18109 : 1"
       inkscape:persp3d-origin="372.04724 : 350.78739 : 1"
       id="perspective3491" />
    <inkscape:perspective
       id="perspective3537"
       inkscape:persp3d-origin="372.04724 : 350.78739 : 1"
       inkscape:vp_z="744.09448 : 526.18109 : 1"
       inkscape:vp_y="0 : 1000 : 0"
       inkscape:vp_x="0 : 526.18109 : 1"
       sodipodi:type="inkscape:persp3d" />
    <inkscape:perspective
       id="perspective3589"
       inkscape:persp3d-origin="372.04724 : 350.78739 : 1"
       inkscape:vp_z="744.09448 : 526.18109 : 1"
       inkscape:vp_y="0 : 1000 : 0"
       inkscape:vp_x="0 : 526.18109 : 1"
       sodipodi:type="inkscape:persp3d" />
    <inkscape:perspective
       id="perspective3423"
       inkscape:persp3d-origin="372.04724 : 350.78739 : 1"
       inkscape:vp_z="744.09448 : 526.18109 : 1"
       inkscape:vp_y="0 : 1000 : 0"
       inkscape:vp_x="0 : 526.18109 : 1"
       sodipodi:type="inkscape:persp3d" />
  </defs>
  <sodipodi:namedview
     id="base"
     pagecolor="#ffffff"
     bordercolor="#666666"
     borderopacity="1.0"
     gridtolerance="10000"
     guidetolerance="10"
     objecttolerance="10"
     inkscape:pageopacity="0.0"
     inkscape:pageshadow="2"
     inkscape:zoom="2.8"
     inkscape:cx="152.79455"
     inkscape:cy="63.194896"
     inkscape:document-units="px"
     inkscape:current-layer="layer1"
     showgrid="true"
     inkscape:window-width="1280"
     inkscape:window-height="914"
     inkscape:window-x="-8"
     inkscape:window-y="-8">
    <inkscape:grid
       type="xygrid"
       id="grid3543"
       visible="true"
       enabled="true" />
  </sodipodi:namedview>
  <metadata
     id="metadata3488">
    <rdf:RDF>
      <cc:Work
         rdf:about="">
        <dc:format>image/svg+xml</dc:format>
        <dc:type
           rdf:resource="http://purl.org/dc/dcmitype/StillImage" />
      </cc:Work>
    </rdf:RDF>
  </metadata>
  <g
     inkscape:label="Layer 1"
     inkscape:groupmode="layer"
     id="layer1"
     transform="translate(-190.00001,-247.36218)">
    <g
       id="g2578"
       transform="matrix(0.1024765,0,0,0.1024765,208.03587,255.93309)">
      <rect
         y="-83.637817"
         x="-176"
         height="1171"
         width="2985"
         id="rect3429"
         style="opacity:1;fill:#ffdd00;fill-opacity:1;fill-rule:nonzero;stroke:none;stroke-width:0.2;stroke-linecap:round;stroke-linejoin:miter;stroke-miterlimit:4;stroke-dasharray:none;stroke-dashoffset:0;stroke-opacity:1" />
      <rect
         y="502.36218"
         x="-160"
         height="569"
         width="2953"
         id="rect2574"
         style="opacity:1;fill:#000000;fill-opacity:1;fill-rule:nonzero;stroke:none;stroke-width:0.40000001;stroke-linecap:round;stroke-linejoin:miter;stroke-miterlimit:4;stroke-dasharray:none;stroke-dashoffset:0;stroke-opacity:1" />
      <rect
         y="-67.637817"
         x="-160"
         height="570"
         width="2953"
         id="rect2576"
         style="opacity:1;fill:#ffdd00;fill-opacity:1;fill-rule:nonzero;stroke:none;stroke-width:0.40000001;stroke-linecap:round;stroke-linejoin:miter;stroke-miterlimit:4;stroke-dasharray:none;stroke-dashoffset:0;stroke-opacity:1" />
      <path
         sodipodi:nodetypes="ccccccccccccccccc"
         id="path3280"
         d="M 1428,921.36218 L 1361,921.36218 L 1361,661.36218 C 1361,661.36218 1562,661.36218 1563,661.36218 C 1609,661.36218 1646,699.36218 1646,744.36218 C 1646,745.36218 1646,742.36218 1646,742.36218 C 1646,788.37305 1612,811.36218 1599,817.36218 C 1598,817.36218 1645,921.36218 1645,921.36218 L 1571,921.36218 L 1529,825.36218 L 1456,825.36218 L 1456,757.36218 L 1567,757.36218 C 1572,757.36218 1579,751.36218 1579,743.36218 C 1579,735.36218 1572,729.36218 1567,729.36218 L 1428,729.36218 L 1428,921.36218 z"
         style="fill:#ffffff;fill-rule:evenodd;stroke:none;stroke-width:0.2;stroke-linecap:butt;stroke-linejoin:miter;stroke-miterlimit:4;stroke-dasharray:none;stroke-opacity:1" />
      <path
         id="path3595"
         d="M 494,349.36218 L 494,84.362183 L 739,84.362183 L 739,157.36218 L 567,157.36218 L 567,180.36218 L 654,180.36218 L 654,253.36218 L 567,253.36218 L 567,276.36218 L 744,276.36218 L 744,349.36218 L 494,349.36218 z"
         style="fill:#000000;fill-rule:evenodd;stroke:none;stroke-width:1px;stroke-linecap:butt;stroke-linejoin:miter;stroke-opacity:1" />
      <path
         id="path3597"
         d="M 924,349.36218 L 924,157.36218 L 832,157.36218 L 832,84.362183 L 1089,84.362183 L 1089,157.36218 L 997,157.36218 L 997,349.36218 L 924,349.36218 z"
         style="fill:#000000;fill-rule:evenodd;stroke:none;stroke-width:1px;stroke-linecap:butt;stroke-linejoin:miter;stroke-opacity:1" />
      <path
         style="fill:#000000;fill-rule:evenodd;stroke:none;stroke-width:1px;stroke-linecap:butt;stroke-linejoin:miter;stroke-opacity:1"
         d="M 1950,349.36218 L 1950,157.36218 L 1858,157.36218 L 1858,84.362186 L 2115,84.362186 L 2115,157.36218 L 2023,157.36218 L 2023,349.36218 L 1950,349.36218 z"
         id="path3599" />
      <path
         id="path2442"
         d="M 1125,349.36218 L 1242,84.362183 L 1322,84.362183 L 1439,349.36218 L 1359,349.36218 L 1282,176.36218 L 1237,276.36218 L 1302,276.36218 L 1334,349.36218 L 1125,349.36218 z"
         style="fill:#000000;fill-rule:evenodd;stroke:none;stroke-width:0.2;stroke-linecap:butt;stroke-linejoin:miter;stroke-miterlimit:4;stroke-dasharray:none;stroke-opacity:1" />
      <path
         style="fill:#000000;fill-rule:evenodd;stroke:#000000;stroke-width:1.95166624;stroke-linecap:butt;stroke-linejoin:miter;stroke-miterlimit:4;stroke-dasharray:none;stroke-opacity:1"
         d="M 2144,349.36218 L 2261,84.362196 L 2341,84.362196 L 2458,349.36218 L 2378,349.36218 L 2301,176.36218 L 2256,276.36218 L 2321,276.36218 L 2353,349.36218 L 2144,349.36218 z"
         id="path3214" />
      <path
         id="path3216"
         d="M 1583,349.36218 L 1510,349.36218 L 1510,84.362183 L 1584,84.362183 L 1706,234.36218 L 1706,84.362183 L 1779,84.362183 L 1779,349.36218 L 1705,349.36218 L 1583,199.36218 L 1583,349.36218 z"
         style="fill:#000000;fill-rule:evenodd;stroke:none;stroke-width:0.2;stroke-linecap:butt;stroke-linejoin:miter;stroke-miterlimit:4;stroke-dasharray:none;stroke-opacity:1" />
      <path
         id="path3218"
         d="M 1938,921.36218 L 1871,921.36218 L 1871,729.36218 L 1752,729.36218 L 1752,661.36218 L 2057,661.36218 L 2057,729.36218 L 1938,729.36218 L 1938,921.36218 z"
         style="fill:#ffffff;fill-rule:evenodd;stroke:none;stroke-width:0.2;stroke-linecap:butt;stroke-linejoin:miter;stroke-miterlimit:4;stroke-dasharray:none;stroke-opacity:1" />
      <path
         sodipodi:nodetypes="csccccccczzccccccc"
         id="path2400"
         d="M 1104,921.36218 C 1104,921.36218 1027.4321,921.36218 1026,921.36218 C 980,921.36218 943,883.36218 943,838.36218 C 943,837.36218 943,745.36218 943,744.36218 C 943,698.36218 981,661.36218 1026,661.36218 C 1027,661.36218 1143,661.36218 1144,661.36218 C 1198,661.36218 1227,707.36218 1227,729.36218 C 1226,729.36218 1024,729.36218 1023,729.36218 C 1018,729.36218 1011,736.36218 1011,741.36218 C 1011,742.36218 1011,836.36218 1011,841.36218 C 1011,846.36218 1018,853.36218 1023,853.36218 C 1028,853.36218 1148,853.36219 1149,853.36218 C 1154,853.36218 1161,847.36218 1161,841.36218 C 1161,840.36219 1161,758.36218 1161,758.36218 L 1229,758.36218 C 1229,758.36218 1229,837.36218 1229,838.36218 C 1229,884.36218 1191,921.36218 1146,921.36218 C 1145,921.36218 1104,921.36218 1104,921.36218 z"
         style="fill:#ffffff;fill-rule:evenodd;stroke:none;stroke-width:0.2;stroke-linecap:butt;stroke-linejoin:miter;stroke-miterlimit:4;stroke-dasharray:none;stroke-opacity:1" />
      <path
         sodipodi:nodetypes="cccccccccccccc"
         id="path3246"
         d="M 618,921.36218 L 551,921.36218 L 551,661.36218 C 551,661.36218 755,661.36218 756,661.36218 C 803,661.36218 839,698.36218 839,744.36218 C 839,745.36218 839,741.36218 839,742.36218 C 839,789.36218 802,825.36218 756,825.36218 C 755,825.36218 646,825.36218 646,825.36218 L 646,757.36218 L 760,757.36218 C 765,757.36218 772,751.36218 772,743.36218 C 772,735.36218 765,729.36218 760,729.36218 L 618,729.36218 L 618,921.36218 z"
         style="fill:#ffffff;fill-opacity:1;fill-rule:evenodd;stroke:none;stroke-width:0.2;stroke-linecap:butt;stroke-linejoin:miter;stroke-miterlimit:4;stroke-dasharray:none;stroke-opacity:1" />
      <path
         sodipodi:nodetypes="ccccccccsccccccccsc"
         id="path2459"
         d="M 340,921.36218 C 340,921.36218 149,921.36218 148,921.36218 C 148,899.36218 177,853.36218 231,853.36218 C 232,853.36218 343,853.36218 343,853.36218 C 348,853.36218 355,847.36218 355,839.36218 C 355,831.36218 348,825.36218 343,825.36218 L 230,825.36218 C 184,825.36218 147,788.36218 147,742.36218 C 147,743.36218 147,745.36218 147,744.36218 C 147,699.36218 183.59623,661.36218 230,661.36218 C 230,661.36218 421,661.36218 422,661.36218 C 422,683.36218 393,729.36218 339,729.36218 C 338,729.36218 227,729.36218 227,729.36218 C 222,729.36218 215,735.36218 215,743.36218 C 215,751.36218 222,757.36218 227,757.36218 L 340,757.36218 C 387,757.36218 423,795.36218 423,840.36218 C 423,841.36218 423,837.9833 423,838.36218 C 423,884.36218 385.55329,921.36218 340,921.36218 z"
         style="fill:#ffffff;fill-rule:evenodd;stroke:none;stroke-width:0.2;stroke-linecap:butt;stroke-linejoin:miter;stroke-miterlimit:4;stroke-dasharray:none;stroke-opacity:1" />
      <path
         style="fill:#ffffff;fill-rule:evenodd;stroke:none;stroke-width:0.2;stroke-linecap:butt;stroke-linejoin:miter;stroke-miterlimit:4;stroke-dasharray:none;stroke-opacity:1"
         d="M 2372,921.36218 C 2372,921.36218 2181,921.36218 2180,921.36218 C 2180,899.36218 2209,853.36218 2263,853.36218 C 2264,853.36218 2375,853.36218 2375,853.36218 C 2380,853.36218 2387,847.36218 2387,839.36218 C 2387,831.36218 2380,825.36218 2375,825.36218 L 2262,825.36218 C 2216,825.36218 2179,788.36218 2179,742.36218 C 2179,743.36218 2179,745.36218 2179,744.36218 C 2179,699.36218 2215.5962,661.36218 2262,661.36218 C 2262,661.36218 2453,661.36218 2454,661.36218 C 2454,683.36218 2425,729.36218 2371,729.36218 C 2370,729.36218 2259,729.36218 2259,729.36218 C 2254,729.36218 2247,735.36218 2247,743.36218 C 2247,751.36218 2254,757.36218 2259,757.36218 L 2372,757.36218 C 2419,757.36218 2455,795.36218 2455,840.36218 C 2455,841.36218 2455,837.9833 2455,838.36218 C 2455,884.36218 2417.5533,921.36218 2372,921.36218 z"
         id="path3355"
         sodipodi:nodetypes="ccccccccsccccccccsc" />
      <path
         sodipodi:nodetypes="cccccccscccccccccsccc"
         id="path3433"
         d="M 144,349.36218 C 144,332.36218 167,276.36218 230,276.36218 L 328,276.36218 C 334,276.36218 340,272.36218 340,265.36218 L 340,264.36218 C 340,257.36218 334,253.36218 328,253.36218 C 328,253.36218 228,253.36218 227,253.36218 C 185.7503,253.36218 144,215.36218 144,170.36218 C 144,170.36218 144,169.36218 144,169.36218 C 144,123.36218 181,84.362183 227,84.362183 C 228,84.362183 414,84.362183 414,84.362183 C 414,101.36218 391,157.36218 328,157.36218 L 230,157.36218 C 224,157.36218 218,161.36218 218,168.36218 L 218,169.36218 C 218,176.36218 224,180.36218 230,180.36218 C 230,180.36218 330,180.36218 331,180.36218 C 373.92504,181.29534 414,219.36218 414,264.36218 C 414,264.36218 414,265.36218 414,265.36218 C 414,311.36218 376,349.36218 331,349.36218 L 144,349.36218 z"
         style="fill:#000000;fill-rule:evenodd;stroke:none;stroke-width:0.40000001;stroke-linecap:butt;stroke-linejoin:miter;stroke-miterlimit:4;stroke-dasharray:none;stroke-opacity:1" />
    </g>
  </g>
</svg>
