<svg width="34" height="39" viewBox="0 0 34 39" fill="none" xmlns="http://www.w3.org/2000/svg">
<path fill-rule="evenodd" clip-rule="evenodd" d="M10 39L17 19.5L24.47 0L18 19.5L10 39ZM25.9722 35.5539C24.5276 35.5539 23.1321 35.367 21.7858 34.9933C20.4397 34.6196 19.3315 34.1339 18.4614 33.536L20.3329 28.7156C21.1538 29.2574 22.069 29.6919 23.0786 30.0188C24.0883 30.3457 25.0693 30.5092 26.0215 30.5092C26.5796 30.5092 27.0188 30.4672 27.3389 30.383C27.6591 30.299 27.8931 30.1776 28.0407 30.0188C28.1885 29.86 28.2624 29.6685 28.2624 29.4443C28.2624 29.0893 28.0901 28.809 27.7453 28.6035C27.4005 28.398 26.945 28.2251 26.3786 28.0849C25.8123 27.9449 25.1925 27.7954 24.5195 27.6365C23.8463 27.4777 23.1692 27.2675 22.4879 27.006C21.8065 26.7444 21.1827 26.3987 20.6162 25.969C20.0498 25.5394 19.5942 24.9741 19.2495 24.2734C18.9048 23.5728 18.7324 22.6993 18.7324 21.653C18.7324 20.4385 19.032 19.3314 19.6312 18.3319C20.2305 17.3323 21.1251 16.5336 22.3154 15.9356C23.5056 15.3377 24.9873 15.0389 26.7602 15.0389C27.9259 15.0389 29.075 15.1789 30.2079 15.4593C31.3407 15.7395 32.3585 16.1693 33.2615 16.7485L31.513 21.541C30.6594 21.0551 29.8344 20.6909 29.0382 20.4479C28.2419 20.2051 27.4663 20.0835 26.711 20.0835C26.1529 20.0835 25.7096 20.1395 25.3812 20.2516C25.0528 20.3637 24.819 20.5132 24.6793 20.7001C24.5398 20.8869 24.47 21.0925 24.47 21.3167C24.47 21.6531 24.6423 21.9193 24.987 22.1155C25.3318 22.3117 25.7874 22.4751 26.3537 22.606C26.9201 22.7367 27.544 22.8769 28.2252 23.0264C28.9066 23.1758 29.5837 23.3813 30.2568 23.6429C30.93 23.9045 31.5498 24.2501 32.1161 24.6798C32.6825 25.1095 33.1381 25.6701 33.4828 26.3614C33.8276 27.0527 34 27.9122 34 28.9398C34 30.1355 33.7004 31.2333 33.1011 32.2329C32.5019 33.2325 31.6112 34.0359 30.4293 34.6432C29.2473 35.2504 27.7617 35.5539 25.9722 35.5539ZM6.65232 27.5121L0 8.25024H5.70834L9.45214 19.491L13.3045 8.25024H18.5184L11.8661 27.5121H6.65232Z" fill="url(#paint0_linear_21_2687)"/>
<defs>
<linearGradient id="paint0_linear_21_2687" x1="0" y1="0" x2="38.6358" y2="33.6825" gradientUnits="userSpaceOnUse">
<stop stop-color="#585858"/>
<stop offset="1"/>
</linearGradient>
</defs>
</svg>
