<svg width="20" height="20" viewBox="0 0 20 20" fill="none" xmlns="http://www.w3.org/2000/svg">
<path fill-rule="evenodd" clip-rule="evenodd" d="M10 0C15.5229 0 20 4.47716 20 10C20 15.5229 15.5228 20 10 20C4.47714 20 0 15.5228 0 10C0 4.47714 4.47716 0 10 0V0ZM5.64659 11.2881C5.74136 11.2572 7.00412 11.2793 7.21921 11.2793C7.58481 11.2793 11.1052 11.2538 11.1855 11.2948C11.2855 11.3459 11.2616 11.4929 11.2618 11.626C11.2622 12.0099 11.2316 11.9159 10.3658 11.9159C9.82369 11.9159 5.7015 11.9434 5.61824 11.8985C5.52171 11.8463 5.54602 11.7059 5.54592 11.5735C5.54578 11.4286 5.52338 11.3282 5.64661 11.2881L5.64659 11.2881ZM5.5459 9.58066C5.5459 9.42982 5.58292 9.375 5.7333 9.375H13.5999C13.7432 9.375 13.8013 9.40232 13.8013 9.56318C13.8013 9.87474 13.8451 10.0118 13.5999 10.0117H5.7508C5.50437 10.0117 5.54592 9.8894 5.54592 9.58064L5.5459 9.58066ZM5.65171 7.48022C5.73597 7.45012 12.5644 7.47019 13.4251 7.47017C13.638 7.47017 13.798 7.42057 13.8018 7.65745C13.8044 7.82356 13.8417 8.06249 13.6957 8.101C13.596 8.1273 6.59161 8.10731 5.9081 8.10733C5.69899 8.10733 5.54905 8.15115 5.54554 7.92075C5.54184 7.67905 5.50799 7.53153 5.65171 7.4802V7.48022ZM4.9176 14.4566L6.2062 15.9605C6.35535 16.1165 6.56891 16.398 6.72372 16.5617C6.80587 16.6485 6.95156 16.7383 7.13201 16.7332C7.45999 16.7239 7.62474 16.4179 7.7792 16.259L8.04137 15.9618C8.08712 15.9127 8.12157 15.8702 8.17236 15.8134C8.21626 15.7642 8.25302 15.7204 8.30261 15.6639L9.34888 14.4575C9.78311 14.4417 10.2434 14.4556 10.6805 14.4556H15.9948C16.3079 14.4556 16.7528 14.5069 16.9289 14.0635C17.0153 13.8458 16.9778 13.0728 16.9778 12.7797V6.13685C16.9778 5.39177 17.0262 4.93014 16.1871 4.93064H4.21242C3.60555 4.93064 3.00582 4.82557 3.00621 5.71731V13.6888C3.00603 13.9282 3.01732 14.0507 3.14579 14.2134C3.23087 14.3212 3.36638 14.429 3.57102 14.4514C3.74681 14.4707 4.64249 14.4517 4.91762 14.4566H4.9176Z" fill="white"/>
</svg>
