<svg width="23" height="15" viewBox="0 0 23 15" fill="none" xmlns="http://www.w3.org/2000/svg">
<path d="M0 0.827653C0.00155792 0.608803 0.0910045 0.399338 0.249017 0.244507C0.407029 0.0896754 0.620923 0.00190693 0.844492 0.000161406L22.1555 0C22.622 0 23 0.370829 23 0.827491V14.1723C22.9984 14.3912 22.909 14.6007 22.751 14.7555C22.593 14.9103 22.3791 14.9981 22.1555 14.9998L0.844492 15C0.620441 14.9998 0.405643 14.9125 0.247294 14.7573C0.0889458 14.6022 -1.13611e-07 14.3918 0 14.1725V0.827653ZM1.7026 1.66681V13.3334L21.2974 13.3332V1.66665L1.7026 1.66681ZM9.90604 4.51261L14.0595 7.22258C14.1063 7.25301 14.1446 7.29427 14.1711 7.34268C14.1975 7.39109 14.2114 7.44516 14.2114 7.50008C14.2114 7.555 14.1975 7.60907 14.1711 7.65748C14.1446 7.7059 14.1063 7.74715 14.0595 7.77758L9.90519 10.4875C9.85397 10.5208 9.79451 10.5398 9.73312 10.5427C9.67173 10.5455 9.6107 10.532 9.55651 10.5037C9.50231 10.4753 9.45696 10.4331 9.42528 10.3816C9.39359 10.33 9.37675 10.271 9.37653 10.2109V4.78928C9.37665 4.72899 9.39346 4.66985 9.42519 4.61818C9.45692 4.5665 9.50237 4.52422 9.55671 4.49583C9.61104 4.46744 9.67223 4.45401 9.73374 4.45696C9.79526 4.45992 9.85481 4.47915 9.90604 4.51261Z" fill="#959FA8"/>
</svg>
