<svg width="19" height="21" viewBox="0 0 19 21" fill="none" xmlns="http://www.w3.org/2000/svg">
<path fill-rule="evenodd" clip-rule="evenodd" d="M8.78508 15.5812C8.58507 13.0518 10.4733 11.0658 12.7775 10.8773C15.3063 10.6704 17.3384 12.5469 17.5241 14.8284C17.7298 17.3568 15.835 19.3446 13.5353 19.5355C10.9957 19.7463 8.96459 17.8514 8.78506 15.5812H8.78508ZM1.46355 1.44815L8.76989 1.45753L8.78031 5.79297H13.1422C13.1781 5.94272 13.1549 9.17343 13.1549 9.41355C12.3513 9.42406 11.6779 9.55758 11.0024 9.82058C10.4427 10.0385 10.5124 10.1378 10.0401 10.1378H3.65416V11.5859L8.59824 11.5918C8.54275 11.6828 8.43688 11.8131 8.36157 11.9152C8.02427 12.3725 7.80109 12.9402 7.73443 13.0342L3.65416 13.0343V14.4824L7.34487 14.4837C7.3771 14.8477 7.23425 15.2113 7.37339 16.0615C7.50541 16.8681 7.58614 16.8288 7.73453 17.3789L1.46162 17.3757L1.46355 1.44811V1.44815ZM10.2336 2.47952C10.3293 2.53289 12.0602 4.24913 12.1144 4.34477L10.2314 4.34351L10.2336 2.47952H10.2336ZM8.62295 18.829C8.84401 19.1552 9.12209 19.3726 9.3868 19.6211C9.43127 19.6629 9.46009 19.6771 9.50558 19.7157C9.79989 19.9652 10.1979 20.2178 10.5918 20.4057C13.4037 21.7467 16.4761 20.7065 18.0254 18.4067C19.0921 16.8234 19.34 14.7872 18.4848 12.8421C18.2909 12.4009 18.0627 12.0787 17.8189 11.7354C17.6947 11.5606 17.5394 11.4012 17.4047 11.2505C17.1688 10.9864 16.7287 10.6348 16.441 10.4389C15.9784 10.1238 15.1666 9.72246 14.6167 9.62339L14.6166 4.81497C14.606 4.73971 13.5613 3.73649 13.4264 3.60261L10.3949 0.599712C10.1974 0.404228 9.987 0.213763 9.80243 8.25682e-05L0 0L0.0069395 18.8274L8.62295 18.829V18.829ZM3.65416 8.68944L10.9624 8.68932V7.24599L10.8721 7.24027L3.65785 7.24122L3.65416 8.68944ZM12.424 14.4824L10.2397 14.4825L10.2315 15.9298L12.4241 15.9308V18.096L13.8857 18.103V15.9308H16.0743L16.0775 14.4824H13.8879L13.8855 12.3145L12.4266 12.3104L12.424 14.4824L12.424 14.4824Z" fill="#F0FF91"/>
</svg>
