<svg width="20" height="20" viewBox="0 0 20 20" fill="none" xmlns="http://www.w3.org/2000/svg">
<path fill-rule="evenodd" clip-rule="evenodd" d="M8.59463 13.7288L11.4095 13.7361L11.4094 14.6102C11.8762 14.6083 12.496 14.5527 12.8719 14.7462C13.2138 14.9223 13.4948 15.2511 13.4081 15.8005L6.57999 15.7999C6.52137 15.2514 6.75945 14.9321 7.11752 14.75C7.54603 14.5322 8.06388 14.6311 8.5802 14.6074L8.59463 13.7288ZM2.92911 4.50861L17.0619 4.50726L17.0649 4.66248L17.0652 13.4079L17.0635 13.5203L2.92767 13.5209L2.92911 4.50861ZM0.00811448 10.4154C0.219061 15.7949 4.78585 20.2292 10.4181 19.985C11.9214 19.9198 13.2296 19.545 14.4087 18.9715C15.2126 18.5805 15.6862 18.2316 16.3264 17.7417C16.5331 17.5835 17.3072 16.8439 17.4474 16.6714C17.5065 16.5987 17.5156 16.5864 17.5916 16.5065C18.1747 15.893 18.9176 14.5816 19.2466 13.8003C20.7372 10.2606 19.9539 6.13454 17.4456 3.3369C17.3426 3.22211 17.2735 3.11087 17.1506 3.01187C17.0656 2.94342 17.0767 2.94245 17 2.8533L16.16 2.11912C15.5282 1.59755 14.5558 1.07073 13.7944 0.74482C11.0856 -0.4148 7.74979 -0.198724 5.16681 1.24215C3.73511 2.04078 2.50028 3.17229 1.61229 4.55115C0.510768 6.26154 -0.0771038 8.24235 0.00811448 10.4154ZM4.57145 6.11519L15.4284 6.1142L15.4283 11.8119L4.56486 11.8071L4.57145 6.11519ZM3.91905 12.4816L16.073 12.4866L16.0743 5.5443L3.9208 5.54432L3.91905 12.4816ZM6.57128 7.91106L7.88302 7.9118L7.88384 10.8011L8.6969 10.7996L8.70203 7.92454L9.88734 7.91016L11.0906 10.7976L11.7669 10.7997C11.925 10.4029 13.2412 7.34184 13.2425 7.22761L12.3884 7.22909L11.9093 8.39897C11.827 8.59727 11.7544 8.79028 11.6736 8.98791C11.6328 9.08763 11.5917 9.18617 11.5534 9.28073C11.5172 9.37008 11.4866 9.49356 11.4241 9.56702L10.476 7.22882L6.58485 7.2288L6.57128 7.91106Z" fill="white"/>
</svg>
