<svg width="10" height="10" viewBox="0 0 10 10" fill="none" xmlns="http://www.w3.org/2000/svg">
<path fill-rule="evenodd" clip-rule="evenodd" d="M5 0.909091C2.74065 0.909091 0.909091 2.74065 0.909091 5C0.909091 7.25935 2.74065 9.09091 5 9.09091C7.25935 9.09091 9.09091 7.25935 9.09091 5C9.09091 2.74065 7.25935 0.909091 5 0.909091ZM0 5C0 2.23858 2.23858 0 5 0C7.76142 0 10 2.23858 10 5C10 7.76142 7.76142 10 5 10C2.23858 10 0 7.76142 0 5ZM5 1.81818C5.25104 1.81818 5.45455 2.02169 5.45455 2.27273V4.71908L7.02146 5.50253C7.246 5.6148 7.33701 5.88783 7.22474 6.11237C7.11247 6.33691 6.83944 6.42792 6.6149 6.31565L4.79672 5.40656C4.64273 5.32956 4.54545 5.17217 4.54545 5V2.27273C4.54545 2.02169 4.74896 1.81818 5 1.81818Z" fill="#C1C1C1"/>
</svg>
