<svg width="15" height="16" viewBox="0 0 15 16" fill="none" xmlns="http://www.w3.org/2000/svg">
<path d="M6.25001 10.9241C6.25001 10.7956 6.35485 10.6914 6.48416 10.6914H8.69444C8.82376 10.6914 8.92859 10.7956 8.92859 10.9241V11.3496C8.92859 11.4782 8.82376 11.5824 8.69444 11.5824H6.48416C6.35485 11.5824 6.25001 11.4782 6.25001 11.3496V10.9241Z" fill="#C1C1C1"/>
<path d="M10.7143 9.14223C10.7143 9.0137 10.8191 8.9095 10.9485 8.9095H13.1587C13.288 8.9095 13.3929 9.0137 13.3929 9.14223V9.56772C13.3929 9.69626 13.288 9.80045 13.1587 9.80045H10.9485C10.8191 9.80045 10.7143 9.69626 10.7143 9.56772V9.14223Z" fill="#C1C1C1"/>
<path d="M1.78572 7.36031C1.78572 7.23178 1.89056 7.12758 2.01987 7.12758H4.23015C4.35947 7.12758 4.4643 7.23178 4.4643 7.36031V7.78581C4.4643 7.91434 4.35947 8.01853 4.23015 8.01853H2.01987C1.89056 8.01853 1.78572 7.91434 1.78572 7.78581V7.36031Z" fill="#C1C1C1"/>
<path d="M1.78572 9.14223C1.78572 9.0137 1.89056 8.9095 2.01987 8.9095H4.23015C4.35947 8.9095 4.4643 9.0137 4.4643 9.14223V9.56772C4.4643 9.69626 4.35947 9.80045 4.23015 9.80045H2.01987C1.89056 9.80045 1.78572 9.69626 1.78572 9.56772V9.14223Z" fill="#C1C1C1"/>
<path d="M1.78572 10.9241C1.78572 10.7956 1.89056 10.6914 2.01987 10.6914H4.23015C4.35947 10.6914 4.4643 10.7956 4.4643 10.9241V11.3496C4.4643 11.4782 4.35947 11.5824 4.23015 11.5824H2.01987C1.89056 11.5824 1.78572 11.4782 1.78572 11.3496V10.9241Z" fill="#C1C1C1"/>
<path d="M1.78572 12.706C1.78572 12.5775 1.89056 12.4733 2.01987 12.4733H4.23015C4.35947 12.4733 4.4643 12.5775 4.4643 12.706V13.1315C4.4643 13.26 4.35947 13.3642 4.23015 13.3642H2.01987C1.89056 13.3642 1.78572 13.26 1.78572 13.1315V12.706Z" fill="#C1C1C1"/>
<path d="M6.25001 7.36031C6.25001 7.23178 6.35485 7.12758 6.48416 7.12758H8.69444C8.82376 7.12758 8.92859 7.23178 8.92859 7.36031V7.78581C8.92859 7.91434 8.82376 8.01853 8.69444 8.01853H6.48416C6.35485 8.01853 6.25001 7.91434 6.25001 7.78581V7.36031Z" fill="#C1C1C1"/>
<path d="M6.25001 9.14223C6.25001 9.0137 6.35485 8.9095 6.48416 8.9095H8.69444C8.82376 8.9095 8.92859 9.0137 8.92859 9.14223V9.56772C8.92859 9.69626 8.82376 9.80045 8.69444 9.80045H6.48416C6.35485 9.80045 6.25001 9.69626 6.25001 9.56772V9.14223Z" fill="#C1C1C1"/>
<path d="M6.25001 12.706C6.25001 12.5775 6.35485 12.4733 6.48416 12.4733H8.69444C8.82376 12.4733 8.92859 12.5775 8.92859 12.706V13.1315C8.92859 13.26 8.82376 13.3642 8.69444 13.3642H6.48416C6.35485 13.3642 6.25001 13.26 6.25001 13.1315V12.706Z" fill="#C1C1C1"/>
<path d="M10.7143 7.36031C10.7143 7.23178 10.8191 7.12758 10.9485 7.12758H13.1587C13.288 7.12758 13.3929 7.23178 13.3929 7.36031V7.78581C13.3929 7.91434 13.288 8.01853 13.1587 8.01853H10.9485C10.8191 8.01853 10.7143 7.91434 10.7143 7.78581V7.36031Z" fill="#C1C1C1"/>
<path d="M10.7143 10.9241C10.7143 10.7956 10.8191 10.6914 10.9485 10.6914H13.1587C13.288 10.6914 13.3929 10.7956 13.3929 10.9241V11.3496C13.3929 11.4782 13.288 11.5824 13.1587 11.5824H10.9485C10.8191 11.5824 10.7143 11.4782 10.7143 11.3496V10.9241Z" fill="#C1C1C1"/>
<path fill-rule="evenodd" clip-rule="evenodd" d="M12.8571 3.44123H2.14286C1.36621 3.44123 0.731707 4.07026 0.731707 4.85224V13.8617C0.731707 14.6437 1.36621 15.2727 2.14286 15.2727H12.8571C13.6338 15.2727 14.2683 14.6437 14.2683 13.8617V4.85224C14.2683 4.07026 13.6338 3.44123 12.8571 3.44123ZM2.14286 2.71396C0.95939 2.71396 0 3.6713 0 4.85224V13.8617C0 15.0427 0.959391 16 2.14286 16H12.8571C14.0406 16 15 15.0427 15 13.8617V4.85224C15 3.6713 14.0406 2.71396 12.8571 2.71396H2.14286Z" fill="#C1C1C1"/>
<path d="M10.1122 2.54546C9.98288 2.54546 9.87805 2.44126 9.87805 2.31273V0.232728C9.87805 0.104196 9.98288 0 10.1122 0H10.7415C10.8708 0 10.9756 0.104196 10.9756 0.232728V2.31273C10.9756 2.44126 10.8708 2.54546 10.7415 2.54546H10.1122Z" fill="#C1C1C1"/>
<path d="M10.1122 5.81819C9.98288 5.81819 9.87805 5.71399 9.87805 5.58546V3.50546C9.87805 3.37693 9.98288 3.27273 10.1122 3.27273H10.7415C10.8708 3.27273 10.9756 3.37693 10.9756 3.50546V5.58546C10.9756 5.71399 10.8708 5.81819 10.7415 5.81819H10.1122Z" fill="#C1C1C1"/>
<path fill-rule="evenodd" clip-rule="evenodd" d="M4.25854 2.54546C4.12922 2.54546 4.02439 2.44126 4.02439 2.31273V0.232728C4.02439 0.104196 4.12922 1.47595e-08 4.25854 1.47595e-08H4.8878C5.01712 1.47595e-08 5.12195 0.104196 5.12195 0.232728V2.31273C5.12195 2.44126 5.01712 2.54546 4.8878 2.54546H4.25854Z" fill="#C1C1C1"/>
<path fill-rule="evenodd" clip-rule="evenodd" d="M4.25854 5.81819C4.12922 5.81819 4.02439 5.71399 4.02439 5.58546V3.50546C4.02439 3.37693 4.12922 3.27273 4.25854 3.27273H4.8878C5.01712 3.27273 5.12195 3.37693 5.12195 3.50546V5.58546C5.12195 5.71399 5.01712 5.81819 4.8878 5.81819H4.25854Z" fill="#C1C1C1"/>
</svg>
