<svg width="10" height="10" viewBox="0 0 10 10" fill="none" xmlns="http://www.w3.org/2000/svg">
<path fill-rule="evenodd" clip-rule="evenodd" d="M5 0C2.23858 0 0 2.23858 0 5C0 7.76142 2.23858 10 5 10H8.31446C8.55632 10 8.7649 10 8.93558 9.98347C9.11634 9.96593 9.29469 9.92704 9.46004 9.82314C9.60681 9.73092 9.73092 9.60681 9.82314 9.46004C9.92704 9.29469 9.96593 9.11634 9.98347 8.93558C10 8.7649 10 8.55632 10 8.31446V5C10 2.23858 7.76142 0 5 0ZM2.30769 4.23077C2.30769 4.01835 2.47989 3.84615 2.69231 3.84615H5.38461C5.59703 3.84615 5.76923 4.01835 5.76923 4.23077C5.76923 4.44319 5.59703 4.61538 5.38461 4.61538H2.69231C2.47989 4.61538 2.30769 4.44319 2.30769 4.23077ZM2.30769 5.76923C2.30769 5.55681 2.47989 5.38461 2.69231 5.38461H7.30769C7.52011 5.38461 7.69231 5.55681 7.69231 5.76923C7.69231 5.98165 7.52011 6.15385 7.30769 6.15385H2.69231C2.47989 6.15385 2.30769 5.98165 2.30769 5.76923Z" fill="#C1C1C1"/>
</svg>
