<svg width="12" height="13" viewBox="0 0 12 13" fill="none" xmlns="http://www.w3.org/2000/svg">
<path d="M6.55838 0.0617675C6.23881 -0.0390265 5.89031 -0.0160012 5.58707 0.127466C5.25261 0.2857 4.99741 0.579826 4.90166 0.942211L4.61095 2.04252C4.5288 2.35347 4.40901 2.65409 4.25421 2.93861C4.04732 3.31888 3.71626 3.64248 3.31625 3.9809L2.43703 4.72478C2.06652 5.03825 1.86939 5.51041 1.91202 5.9945L2.40834 11.6301C2.47722 12.4122 3.14008 13 3.91999 13H6.76081C9.11109 13 11.1509 11.3894 11.5461 9.1457L11.9772 6.69785C12.1406 5.77021 11.4141 4.94052 10.4824 4.94052H7.31614L7.31378 4.94043C7.31273 4.94034 7.31153 4.9401 7.31153 4.9401L7.30965 4.93947L7.30793 4.9384L7.71232 2.51515C7.78978 2.05095 7.76764 1.57596 7.64738 1.12079C7.51649 0.625357 7.13212 0.24273 6.64697 0.0897099L6.55838 0.0617675Z" fill="#C1C1C1"/>
<path d="M0.998072 5.39666C0.974595 5.13008 0.745393 4.92925 0.478046 4.941C0.2107 4.95275 0 5.17291 0 5.44052V12.2076C0 12.6533 0.365173 13 0.797431 13C1.25603 13 1.63342 12.6108 1.59183 12.1386L0.998072 5.39666Z" fill="#C1C1C1"/>
</svg>
