<svg width="18" height="13" viewBox="0 0 18 13" fill="none" xmlns="http://www.w3.org/2000/svg">
<path d="M17.0233 6.06117C16.3546 4.33132 15.1936 2.83534 13.6839 1.75813C12.1742 0.680918 10.3819 0.0696937 8.5286 0C6.6753 0.0696937 4.88303 0.680918 3.37332 1.75813C1.8636 2.83534 0.702627 4.33132 0.0338735 6.06117C-0.0112912 6.18609 -0.0112912 6.32288 0.0338735 6.44781C0.702627 8.17766 1.8636 9.67364 3.37332 10.7508C4.88303 11.8281 6.6753 12.4393 8.5286 12.509C10.3819 12.4393 12.1742 11.8281 13.6839 10.7508C15.1936 9.67364 16.3546 8.17766 17.0233 6.44781C17.0685 6.32288 17.0685 6.18609 17.0233 6.06117ZM8.5286 11.3718C5.51508 11.3718 2.33098 9.13724 1.17674 6.25449C2.33098 3.37174 5.51508 1.13718 8.5286 1.13718C11.5421 1.13718 14.7262 3.37174 15.8805 6.25449C14.7262 9.13724 11.5421 11.3718 8.5286 11.3718Z" fill="#F0F0F0"/>
<path d="M8.52848 2.84296C7.85374 2.84296 7.19416 3.04304 6.63313 3.4179C6.07211 3.79277 5.63484 4.32558 5.37663 4.94896C5.11842 5.57233 5.05086 6.25828 5.1825 6.92005C5.31413 7.58183 5.63905 8.1897 6.11616 8.66682C6.59327 9.14393 7.20115 9.46885 7.86293 9.60048C8.5247 9.73212 9.21065 9.66456 9.83402 9.40635C10.4574 9.14813 10.9902 8.71087 11.3651 8.14985C11.7399 7.58882 11.94 6.92923 11.94 6.2545C11.94 5.3497 11.5806 4.48196 10.9408 3.84217C10.301 3.20239 9.43328 2.84296 8.52848 2.84296ZM8.52848 8.52885C8.07866 8.52885 7.63893 8.39547 7.26492 8.14556C6.8909 7.89565 6.59939 7.54044 6.42725 7.12485C6.25511 6.70927 6.21007 6.25197 6.29783 5.81079C6.38558 5.36961 6.60219 4.96435 6.92027 4.64628C7.23834 4.32821 7.6436 4.11159 8.08478 4.02384C8.52596 3.93608 8.98326 3.98112 9.39884 4.15326C9.81443 4.3254 10.1696 4.61691 10.4195 4.99093C10.6695 5.36495 10.8028 5.80467 10.8028 6.2545C10.8028 6.85769 10.5632 7.43618 10.1367 7.86271C9.71017 8.28923 9.13168 8.52885 8.52848 8.52885Z" fill="#F0F0F0"/>
</svg>
