<svg width="21" height="22" viewBox="0 0 21 22" fill="none" xmlns="http://www.w3.org/2000/svg">
<path d="M7.11802 12.51L13.8686 16.49M13.8587 5.51001L7.11802 9.49001M19.3837 4C19.3837 5.65685 18.0562 7 16.4186 7C14.781 7 13.4535 5.65685 13.4535 4C13.4535 2.34315 14.781 1 16.4186 1C18.0562 1 19.3837 2.34315 19.3837 4ZM7.52325 11C7.52325 12.6569 6.19572 14 4.55813 14C2.92055 14 1.59302 12.6569 1.59302 11C1.59302 9.34315 2.92055 8 4.55813 8C6.19572 8 7.52325 9.34315 7.52325 11ZM19.3837 18C19.3837 19.6569 18.0562 21 16.4186 21C14.781 21 13.4535 19.6569 13.4535 18C13.4535 16.3431 14.781 15 16.4186 15C18.0562 15 19.3837 16.3431 19.3837 18Z" stroke="white" stroke-width="2" stroke-linecap="round" stroke-linejoin="round"/>
</svg>
