<svg width="22" height="22" viewBox="0 0 24 24" fill="none" xmlns="http://www.w3.org/2000/svg">
<g filter="url(#filter0_d_41_2389)">
<path d="M14.25 14.625C14.25 14.0037 14.7537 13.5 15.375 13.5C15.9963 13.5 16.5 14.0037 16.5 14.625C16.5 15.2463 15.9963 15.75 15.375 15.75C14.7537 15.75 14.25 15.2463 14.25 14.625Z" fill="white"/>
<path d="M7.50001 9.37501C7.50001 8.75369 8.00369 8.25001 8.62501 8.25001C9.24634 8.25001 9.75001 8.75369 9.75001 9.37501C9.75001 9.99634 9.24634 10.5 8.62501 10.5C8.00369 10.5 7.50001 9.99634 7.50001 9.37501Z" fill="white"/>
<path fill-rule="evenodd" clip-rule="evenodd" d="M12 2.25001L11.8563 2.25001C9.90062 2.24986 8.76352 2.24977 7.80887 2.50557C5.22068 3.19907 3.19907 5.22068 2.50557 7.80887C2.24977 8.76352 2.24986 9.90062 2.25001 11.8563L2.25001 12L2.25001 12.1437C2.24986 14.0994 2.24977 15.2365 2.50557 16.1912C3.19907 18.7793 5.22068 20.801 7.80887 21.4945C8.76352 21.7503 9.90062 21.7502 11.8563 21.75L12 21.75L12.1437 21.75C14.0994 21.7502 15.2365 21.7503 16.1912 21.4945C18.7793 20.801 20.801 18.7793 21.4945 16.1912C21.7503 15.2365 21.7502 14.0994 21.75 12.1437L21.75 12L21.75 11.8563C21.7502 9.90062 21.7503 8.76352 21.4945 7.80887C20.801 5.22068 18.7793 3.19907 16.1912 2.50557C15.2365 2.24977 14.0994 2.24986 12.1437 2.25001L12 2.25001ZM6.00001 9.37501C6.00001 7.92527 7.17527 6.75001 8.62501 6.75001C10.0748 6.75001 11.25 7.92527 11.25 9.37501C11.25 10.5641 10.4593 11.5686 9.37501 11.8913V16.5C9.37501 16.9142 9.03923 17.25 8.62501 17.25C8.2108 17.25 7.87501 16.9142 7.87501 16.5V11.8913C6.79071 11.5686 6.00001 10.5641 6.00001 9.37501ZM15.375 6.75001C15.7892 6.75001 16.125 7.0858 16.125 7.50001V12.1087C17.2093 12.4314 18 13.4359 18 14.625C18 16.0748 16.8248 17.25 15.375 17.25C13.9253 17.25 12.75 16.0748 12.75 14.625C12.75 13.4359 13.5407 12.4314 14.625 12.1087V7.50001C14.625 7.0858 14.9608 6.75001 15.375 6.75001Z" fill="white"/>
</g>
<defs>
<filter id="filter0_d_41_2389" x="0.25" y="0.25" width="23.5" height="23.5" filterUnits="userSpaceOnUse" color-interpolation-filters="sRGB">
<feFlood flood-opacity="0" result="BackgroundImageFix"/>
<feColorMatrix in="SourceAlpha" type="matrix" values="0 0 0 0 0 0 0 0 0 0 0 0 0 0 0 0 0 0 127 0" result="hardAlpha"/>
<feOffset/>
<feGaussianBlur stdDeviation="1"/>
<feComposite in2="hardAlpha" operator="out"/>
<feColorMatrix type="matrix" values="0 0 0 0 0 0 0 0 0 0 0 0 0 0 0 0 0 0 0.25 0"/>
<feBlend mode="normal" in2="BackgroundImageFix" result="effect1_dropShadow_41_2389"/>
<feBlend mode="normal" in="SourceGraphic" in2="effect1_dropShadow_41_2389" result="shape"/>
</filter>
</defs>
</svg>
